Coordinates
version=1
nRows=17
nColumns=34
inDegrees=yes

Units are S.I. units (second, meters, Newtons, ...)
If the header above contains a line with 'inDegrees', this indicates whether rotational values are in degrees (yes) or radians (no).

endheader
time	pelvis_tilt	pelvis_list	pelvis_rotation	pelvis_tx	pelvis_ty	pelvis_tz	hip_flexion_r	hip_adduction_r	hip_rotation_r	knee_angle_r	ankle_angle_r	subtalar_angle_r	mtp_angle_r	hip_flexion_l	hip_adduction_l	hip_rotation_l	knee_angle_l	ankle_angle_l	subtalar_angle_l	mtp_angle_l	lumbar_extension	lumbar_bending	lumbar_rotation	arm_flex_r	arm_add_r	arm_rot_r	elbow_flex_r	pro_sup_r	arm_flex_l	arm_add_l	arm_rot_l	elbow_flex_l	pro_sup_l
      7.48333330	      7.34875422	    -14.65379279	    -30.30900787	      3.00278290	      1.03174734	      0.65375184	    -19.29053833	      3.41503055	     -3.44644445	     14.60016497	     25.72717132	     11.07708144	      0.00000000	    -10.96766837	      5.52953198	      4.84214727	     23.22053225	     23.09221532	      1.08960065	      0.00000000	     -6.81186509	      5.86509402	     -4.30067561	     19.75986239	     -0.74380834	      5.53801860	     16.38421120	    118.13213704	     18.66686037	     -7.06699736	     24.37414052	     29.87674226	    116.37678861
      7.50000000	      7.09422099	    -14.53605317	    -30.10391249	      3.00395028	      1.03130999	      0.65430194	    -19.36094975	      3.58919364	     -3.51749154	     14.03707866	     25.54542715	     10.92082244	      0.00000000	    -10.61743325	      5.21548198	      4.09789434	     23.22417177	     21.28824024	      1.71983176	      0.00000000	     -6.45758189	      5.87323723	     -4.62071624	     19.52159329	     -0.83631343	      5.63777980	     16.51410075	    118.17971589	     18.90757942	     -7.08499861	     23.98095021	     29.41763611	    116.37196259
      7.51666670	      6.83995406	    -14.55495592	    -30.04027892	      3.00521463	      1.03096535	      0.65499605	    -19.50276904	      3.82348172	     -3.45314580	     13.48958126	     25.34350691	     10.82322722	      0.00000000	    -10.31177110	      4.82426000	      3.44240270	     23.27268341	     19.61745568	      2.41231777	      0.00000000	     -6.12478007	      6.01895121	     -4.87890014	     19.28314716	     -0.95659711	      5.84649723	     16.87625611	    118.26590655	     19.12067354	     -7.06497300	     23.29422724	     28.78643355	    116.35306344
      7.53333330	      6.57561389	    -14.93231128	    -30.13997481	      3.00627192	      1.03071434	      0.65582628	    -19.83752708	      4.40469093	     -2.54722564	     12.91298288	     24.93063039	     10.10193425	      0.00000000	    -10.22587695	      4.02840453	      2.24443398	     23.27806595	     18.63954795	      4.05972215	      0.00000000	     -5.97999461	      6.52568941	     -4.91549962	     19.18176022	     -1.25605974	      6.76484283	     17.31664679	    118.68753563	     19.11313090	     -6.65219376	     20.76847159	     28.40725385	    116.61787210
      7.55000000	      6.33298612	    -14.90899923	    -30.05250116	      3.00788454	      1.03015110	      0.65607323	    -19.93828354	      4.54350339	     -2.60228699	     12.43961462	     24.80494106	     10.09474467	      0.00000000	    -10.08554514	      3.80569040	      2.11647692	     23.06048566	     17.12882315	      4.61913691	      0.00000000	     -5.60241295	      6.68050347	     -4.94459189	     19.04799718	     -1.46465883	      6.94121065	     17.56282488	    118.75377761	     19.31847115	     -6.43138949	     20.51562348	     27.95193757	    116.68929723
      7.56666670	      6.13735307	    -14.99304998	    -30.08948512	      3.00930292	      1.02973196	      0.65663655	    -20.25147185	      4.71651605	     -2.57037323	     11.76386581	     24.63008001	     10.24648969	      0.00000000	     -9.91993746	      3.53740234	      1.75629990	     23.11189093	     15.57428935	      4.90660654	      0.00000000	     -5.39223412	      6.90479638	     -4.81086085	     18.86408952	     -1.58554107	      7.37305557	     18.07207110	    118.89778579	     19.71713669	     -6.15706367	     20.05726771	     27.19420673	    116.77279224
      7.58333330	      6.27740662	    -15.23119427	    -30.36623671	      3.01098046	      1.02994296	      0.65818402	    -21.05225866	      4.82745571	     -1.75034067	     10.98353425	     24.35177724	      9.82566238	      0.00000000	    -10.40112846	      3.31122970	      1.07703193	     22.89709935	     14.42733997	      5.39872073	      0.00000000	     -5.50112515	      7.08420295	     -4.45988073	     18.73085090	     -1.96301133	      9.96422679	     18.32416111	    119.73035373	     19.92875337	     -5.88799700	     18.53518108	     26.50721337	    117.69826426
      7.60000000	      6.22076597	    -15.17442308	    -30.24724086	      3.01281397	      1.02954317	      0.65932128	    -21.34311501	      4.87677894	     -1.69692598	     10.56376034	     24.41010985	      9.89373482	      0.00000000	    -10.35216733	      3.19488293	      0.70214677	     22.98443897	     13.61497199	      5.49908302	      0.00000000	     -5.15000806	      7.10674399	     -4.70831130	     18.50053315	     -1.92154741	     10.19155124	     18.69957059	    119.74817918	     20.03676879	     -5.89003607	     18.33499757	     25.92644919	    117.75499099
      7.61666670	      6.24774043	    -15.21128018	    -30.27639705	      3.01403306	      1.02949710	      0.66071152	    -21.91488512	      4.94118280	     -1.59337753	      9.76763089	     24.13825555	     10.05390428	      0.00000000	    -10.35308831	      3.06688287	      0.25868180	     23.18597600	     13.09457879	      5.50821727	      0.00000000	     -5.01107988	      7.08010464	     -4.50828737	     18.18384391	     -2.11566575	     10.96016013	     19.46268710	    119.74817918	     20.49992819	     -5.59447562	     17.80744007	     24.89993336	    117.86886779
      7.63333330	      6.32011735	    -15.39553570	    -30.38952721	      3.01526006	      1.02954266	      0.66267330	    -22.54356580	      5.09177228	     -1.28044789	      9.15332796	     23.96421859	     10.21366442	      0.00000000	    -10.47735152	      2.81624881	     -0.24031399	     23.47188416	     12.71755057	      5.35946668	      0.00000000	     -5.02386223	      7.12843229	     -4.08918710	     17.86422281	     -2.36670745	     12.10898212	     19.98151597	    119.74817918	     20.88075865	     -5.32644730	     17.10534548	     24.15308156	    118.01880925
      7.65000000	      6.51952663	    -15.51047601	    -30.65791866	      3.01659506	      1.02974649	      0.66462525	    -23.18552664	      5.04775688	     -0.62990200	      8.66958459	     23.86370113	      9.96084901	      0.00000000	    -10.78478394	      2.78500074	     -0.71864250	     23.59060575	     12.10287395	      5.42718149	      0.00000000	     -5.22610118	      7.10249904	     -3.66397434	     17.88460064	     -2.77823832	     14.86592629	     20.15370765	    119.74813145	     20.91072331	     -5.00952421	     15.51187709	     23.76696137	    118.49180797
      7.66666670	      6.38155093	    -15.39584874	    -30.65771624	      3.01791204	      1.02971336	      0.66610436	    -23.37481334	      5.08560867	     -0.59500580	      8.15904269	     23.75419434	     10.11924291	      0.00000000	    -10.62511082	      2.71908644	     -0.73163531	     23.65815820	     11.25204141	      5.64456799	      0.00000000	     -5.03038008	      7.07720077	     -3.53297378	     17.73003085	     -2.80220927	     15.10634579	     20.43337520	    119.74817918	     20.96265467	     -4.95931489	     15.33208014	     23.31725726	    118.51335719
      7.68333330	      6.29367237	    -15.12622580	    -30.83014485	      3.01956298	      1.02999608	      0.66821236	    -23.81293827	      4.89965541	     -0.39856697	      7.15273831	     23.38415589	     10.48458437	      0.00000000	    -10.76024004	      2.89953486	     -0.48032705	     23.18326209	     11.01196679	      5.91790211	      0.00000000	     -4.74882467	      6.86231758	     -3.22631201	     17.34643967	     -2.81123546	     15.87813704	     21.21874852	    119.74817918	     21.17026711	     -4.74522981	     14.87744106	     22.20156835	    118.50292041
      7.70000000	      7.10398188	    -15.12551182	    -31.00475852	      3.02124137	      1.03121336	      0.67063003	    -25.35123936	      4.44138761	      0.30575703	      5.95397373	     22.94556918	     10.10532346	      0.00000000	    -12.38951278	      3.41913128	      0.02975017	     21.83381919	     11.19225140	      6.12487401	      0.00000000	     -5.48583821	      6.40299947	     -2.68447438	     17.47180584	     -3.15281956	     18.97073468	     21.66466423	    119.74814911	     21.52124070	     -4.58361219	     13.80283397	     21.57720480	    118.64951472
      7.71666670	      7.11656968	    -14.81398794	    -31.03481899	      3.02374965	      1.03088776	      0.67334991	    -25.84238714	      4.21828772	      0.45379532	      5.15953910	     22.98073419	     10.24246850	      0.00000000	    -12.93877162	      3.71312697	      0.68786462	     21.04618685	     12.82208492	      6.58482207	      0.00000000	     -5.02553618	      6.10633873	     -2.39918575	     17.05406039	     -3.25125041	     19.49208052	     22.06161563	    119.74817918	     21.58213182	     -4.45510116	     13.51958175	     21.01047041	    118.64560204
      7.73333330	      7.73483846	    -14.78352973	    -30.92644245	      3.02592647	      1.03137251	      0.67632740	    -27.02999441	      3.96557574	      0.46859108	      4.37280189	     22.68666085	     10.24052228	      0.00000000	    -14.51671452	      3.98821749	      0.86493538	     19.67907897	     15.04268354	      7.36212974	      0.00000000	     -5.20517835	      5.57423093	     -2.26278562	     16.69673834	     -3.33134928	     20.64211816	     23.00012878	    119.74291431	     21.77733940	     -4.47708770	     12.81531985	     20.33248350	    118.60004595
      7.75000000	      7.90614784	    -14.78374590	    -31.14106296	      3.02733668	      1.03136571	      0.67946704	    -27.36991789	      3.88220648	      0.69579507	      4.38287124	     22.81254793	     10.17878178	      0.00000000	    -15.52736355	      4.17436238	      1.54266614	     18.65593198	     17.40573819	      7.42699907	      0.00000000	     -4.99705470	      5.32690663	     -1.86101254	     16.45498593	     -3.15618543	     21.06868594	     23.38758078	    119.73630652	     21.72694653	     -4.58228289	     12.44355209	     20.23122224	    118.55679773
